<svg width="2500" height="1027" viewBox="0 0 2500 1027" fill="none" xmlns="http://www.w3.org/2000/svg">
<path d="M916.055 464.708C907.929 420.203 888.144 382.675 856.659 352.126C814.238 310.982 759.947 290.432 693.828 290.432C627.709 290.432 573.46 310.982 530.997 352.126C499.512 382.675 479.727 420.203 471.6 464.708V457.475C471.6 431.18 469.771 408.374 466.112 389.143C462.453 369.911 456.198 352.594 447.348 337.192C438.498 321.832 425.989 310.174 409.821 302.303C393.61 294.389 373.826 290.474 350.424 290.474C317.79 290.474 288.645 299.835 263.073 318.513C243.204 333.022 226.099 353.956 212.016 374.038L308.515 0L0 520.062L114.411 536.869L0 730.462H200.613V499.852C200.613 468.835 207.634 443.476 221.632 423.819C235.63 404.162 252.99 394.334 273.668 394.334C294.346 394.334 308.472 401.141 316.939 414.714C325.363 428.287 329.576 451.007 329.576 482.876V730.504H471.6V562.695C479.685 607.243 499.427 644.728 530.785 675.022C573.077 715.868 627.453 736.291 693.828 736.291C760.203 736.291 814.536 715.868 856.871 675.022C888.272 644.728 907.971 607.243 916.098 562.695V730.504H934.776V731.1H937.159H1058.08V500.49C1058.08 469.473 1065.1 444.115 1079.1 424.457C1093.1 404.8 1110.46 394.972 1131.13 394.972C1151.81 394.972 1165.94 401.779 1174.41 415.352C1182.83 428.925 1187.04 451.645 1187.04 483.514V731.142H1329.2V500.533C1329.2 469.516 1336.22 444.157 1350.21 424.5C1364.21 404.843 1381.57 395.014 1402.25 395.014C1422.93 395.014 1437.05 401.822 1445.52 415.395C1453.95 428.967 1458.16 451.688 1458.16 483.556V731.185H1600.18V570.099C1604.44 592.181 1611.8 612.774 1622.44 631.878C1640.13 663.619 1666.05 688.807 1700.17 707.486C1734.29 726.164 1773.95 735.525 1819.13 735.525C1874.36 735.525 1919.93 722.931 1955.84 697.7C1991.75 672.511 2016.09 639.537 2028.89 598.819L1898.32 568.907C1894.78 577.757 1891.29 585.203 1887.89 591.117C1884.49 597.074 1879.98 603.244 1874.4 609.626C1868.83 616.008 1861.94 620.858 1853.81 624.177C1845.68 627.496 1836.28 629.155 1825.64 629.155C1801.99 629.155 1782.54 621.624 1767.27 606.52C1752.04 591.415 1742.8 569.758 1739.53 541.507H2028V569.333C2028 595.627 2029.83 618.433 2033.49 637.665C2037.15 656.896 2043.4 674.213 2052.25 689.616C2061.1 704.975 2073.61 716.634 2089.78 724.505C2105.99 732.419 2125.78 736.333 2149.18 736.333C2181.81 736.333 2210.96 726.973 2236.53 708.294C2256.4 693.785 2273.5 672.852 2287.59 652.769L2191.04 1026.81L2499.56 506.745L2385.15 489.939L2499.56 296.346H2298.95V526.955C2298.95 557.973 2291.93 583.331 2277.93 602.988C2263.93 622.645 2246.57 632.474 2225.89 632.474C2205.21 632.474 2191.09 625.666 2182.62 612.094C2174.2 598.521 2169.98 575.8 2169.98 543.932V296.303H2027.96V479.599C2023.83 427.946 2004.9 384.675 1971.07 349.914C1932.57 310.302 1881.89 290.517 1819.05 290.517C1773.61 290.517 1733.74 301.239 1699.49 322.726C1665.2 344.212 1639.37 372.506 1621.97 407.694C1611.54 428.797 1604.27 451.263 1600.1 475.047V458.198C1600.1 431.903 1598.27 409.098 1594.61 389.866C1590.95 370.634 1584.69 353.317 1575.85 337.915C1567 322.555 1554.49 310.897 1538.32 303.026C1522.11 295.112 1502.32 291.198 1478.92 291.198C1446.29 291.198 1417.14 300.558 1391.57 319.237C1366 337.915 1344.94 367.231 1329.15 391.738L1325.03 398.716C1324.56 395.695 1324.05 392.717 1323.54 389.866C1319.88 370.634 1313.62 353.317 1304.77 337.915C1295.92 322.555 1283.41 310.897 1267.25 303.026C1251.03 295.112 1231.25 291.198 1207.85 291.198C1175.21 291.198 1146.07 300.558 1120.5 319.237C1094.93 337.915 1073.87 367.231 1058.08 391.738V296.814H1014.77L916.055 464.835V464.708ZM693.828 625.751C640.218 625.751 613.455 588.352 613.455 513.553C613.455 438.754 640.26 400.971 693.828 400.971C747.396 400.971 773.818 438.498 773.818 513.553C773.818 588.607 747.14 625.751 693.828 625.751ZM1744.42 460.793C1750.42 440.285 1759.57 424.5 1771.95 413.438C1784.33 402.375 1799.22 396.801 1816.62 396.801C1835.39 396.801 1850.62 402.545 1862.32 414.033C1874.02 425.521 1881.51 441.094 1884.74 460.793H1744.38H1744.42Z" fill="white"/>
</svg>
