<svg width="2545" height="1073" viewBox="0 0 2545 1073" fill="none" xmlns="http://www.w3.org/2000/svg">
<path d="M938.778 487.431C930.651 442.926 910.867 405.399 879.381 374.849C836.961 333.705 782.67 313.155 716.551 313.155C650.431 313.155 596.183 333.705 553.72 374.849C522.235 405.399 502.45 442.926 494.323 487.431V480.198C494.323 453.903 492.494 431.098 488.834 411.866C485.175 392.634 478.921 375.317 470.071 359.915C461.221 344.555 448.712 332.897 432.544 325.026C416.333 317.112 396.548 313.197 373.147 313.197C340.513 313.197 311.367 322.558 285.796 341.236C265.926 355.745 248.822 376.679 234.739 396.761L331.237 22.7231L22.7227 542.786L137.134 559.592L22.7227 753.185H223.336V522.575C223.336 491.558 230.356 466.199 244.354 446.542C258.353 426.885 275.712 417.057 296.391 417.057C317.069 417.057 331.195 423.864 339.662 437.437C348.086 451.01 352.298 473.73 352.298 505.599V753.227H494.323V585.419C502.407 629.966 522.149 667.451 553.507 697.745C595.8 738.591 650.176 759.014 716.551 759.014C782.925 759.014 837.259 738.591 879.594 697.745C910.994 667.451 930.694 629.966 938.821 585.419V753.227H957.499V753.823H959.882H1080.8V523.214C1080.8 492.196 1087.82 466.838 1101.82 447.181C1115.82 427.523 1133.18 417.695 1153.86 417.695C1174.54 417.695 1188.66 424.503 1197.13 438.075C1205.55 451.648 1209.77 474.369 1209.77 506.237V753.866H1351.92V523.256C1351.92 492.239 1358.94 466.88 1372.94 447.223C1386.93 427.566 1404.29 417.737 1424.97 417.737C1445.65 417.737 1459.78 424.545 1468.24 438.118C1476.67 451.691 1480.88 474.411 1480.88 506.28V753.908H1622.91V592.822C1627.16 614.904 1634.52 635.497 1645.16 654.601C1662.86 686.342 1688.77 711.53 1722.89 730.209C1757.02 748.887 1796.67 758.248 1841.86 758.248C1897.08 758.248 1942.65 745.654 1978.56 720.423C2014.47 695.235 2038.81 662.26 2051.62 621.542L1921.04 591.631C1917.51 600.481 1914.02 607.926 1910.61 613.841C1907.21 619.797 1902.7 625.967 1897.13 632.349C1891.55 638.731 1884.66 643.581 1876.53 646.9C1868.41 650.219 1859 651.878 1848.37 651.878C1824.71 651.878 1805.27 644.347 1789.99 629.243C1774.76 614.138 1765.53 592.481 1762.25 564.23H2050.72V592.056C2050.72 618.351 2052.55 641.156 2056.21 660.388C2059.87 679.62 2066.13 696.937 2074.98 712.339C2083.83 727.699 2096.34 739.357 2112.5 747.228C2128.71 755.142 2148.5 759.056 2171.9 759.056C2204.53 759.056 2233.68 749.696 2259.25 731.017C2279.12 716.509 2296.23 695.575 2310.31 675.492L2213.77 1049.53L2522.28 529.468L2407.87 512.662L2522.28 319.069H2321.67V549.678C2321.67 580.696 2314.65 606.054 2300.65 625.711C2286.65 645.369 2269.29 655.197 2248.61 655.197C2227.94 655.197 2213.81 648.389 2205.34 634.817C2196.92 621.244 2192.71 598.523 2192.71 566.655V319.026H2050.68V502.323C2046.55 450.67 2027.62 407.398 1993.79 372.637C1955.29 333.025 1904.61 313.24 1841.77 313.24C1796.33 313.24 1756.46 323.962 1722.21 345.449C1687.92 366.935 1662.09 395.23 1644.69 430.417C1634.27 451.52 1626.99 473.986 1622.82 497.77V480.921C1622.82 454.626 1620.99 431.821 1617.33 412.589C1613.67 393.358 1607.42 376.041 1598.57 360.638C1589.72 345.278 1577.21 333.62 1561.04 325.749C1544.83 317.835 1525.04 313.921 1501.64 313.921C1469.01 313.921 1439.86 323.281 1414.29 341.96C1388.72 360.638 1367.66 389.954 1351.88 414.461L1347.75 421.439C1347.28 418.418 1346.77 415.44 1346.26 412.589C1342.6 393.358 1336.35 376.041 1327.5 360.638C1318.65 345.278 1306.14 333.62 1289.97 325.749C1273.76 317.835 1253.97 313.921 1230.57 313.921C1197.94 313.921 1168.79 323.281 1143.22 341.96C1117.65 360.638 1096.59 389.954 1080.8 414.461V319.537H1037.49L938.778 487.559V487.431ZM716.551 648.475C662.94 648.475 636.178 611.075 636.178 536.276C636.178 461.477 662.983 423.694 716.551 423.694C770.118 423.694 796.541 461.221 796.541 536.276C796.541 611.33 769.863 648.475 716.551 648.475ZM1767.14 483.516C1773.14 463.008 1782.29 447.223 1794.67 436.161C1807.05 425.098 1821.94 419.524 1839.35 419.524C1858.11 419.524 1873.34 425.268 1885.04 436.756C1896.74 448.244 1904.23 463.817 1907.47 483.516H1767.1H1767.14Z" fill="#7B58FC"/>
</svg>
